<svg xmlns="http://www.w3.org/2000/svg" id="Calque_2" viewBox="0 0 220 220">
  <defs>
    <style>
      .cls-1 {
        fill: #ffebc6;
      }

      .cls-2 {
        fill: #06d6a0;
      }

      .cls-3 {
        fill: #006d60;
      }
    </style>
  </defs>
  <g id="Calque_1-2" data-name="Calque_1">
    <rect class="cls-3" width="220" height="220" rx="20.22" ry="20.22"/>
    <g>
      <path class="cls-1" d="M63.41,44.75c48.8,0,78.35,31.46,78.35,66.16,0,29.36-17.73,58.15-37.75,70.55-.95.19-2.1.19-3.05.19-13.34,0-28.02-11.82-30.5-19.26,25.93-15.83,41.18-48.05,43.66-71.69-2.48-6.29-9.53-12.2-24.02-14.3,1.33,2.67,2.29,5.34,2.29,8.2,0,8.58-3.43,16.59-7.05,24.41-9.53,20.59-18.11,51.48-21.35,72.64-10.68-.19-22.3-10.11-25.54-20.21.95-18.88,10.68-57.77,18.68-83.7-4.19.76-7.82,1.53-11.63,1.53-13.92,0-20.21-13.16-20.21-24.41,0-2.1.19-4,.57-5.91,11.25-2.86,23.64-4.19,37.56-4.19Z"/>
      <path class="cls-2" d="M165.48,42.53c.79-.41,1.77-.61,3.15-.61,12.9,0,26.34,10.1,26.09,23.7-.33,17.84-22.78,33.4-39.27,33.4-1.77,0-3.34-.2-4.92-.61,10.23-14.89,15.54-35.48,15.54-45.48,0-4.08-.59-10.4-.59-10.4Z"/>
    </g>
  </g>
</svg> 